<svg width="39" height="28" viewBox="0 0 39 28" fill="none" xmlns="http://www.w3.org/2000/svg">
<path d="M28.45 8.12222L16.575 19.8957M16.575 8.12222L28.45 19.8957M24.7555 26.4889H15.7298C13.4845 26.4889 12.3619 26.4889 11.3277 26.1604C10.8693 26.0148 10.4272 25.8223 10.0083 25.5861C9.06315 25.053 8.29816 24.2314 6.76817 22.588V22.588C3.63274 19.2203 2.06502 17.5365 1.68759 15.5528C1.5231 14.6883 1.5231 13.8006 1.68759 12.936C2.06502 10.9524 3.63274 9.26854 6.76817 5.90085V5.90085C8.29816 4.25754 9.06315 3.43588 10.0083 2.90283C10.4272 2.66658 10.8693 2.47413 11.3277 2.32853C12.3619 2 13.4845 2 15.7298 2H24.7556C29.6659 2 32.121 2 33.8854 3.17729C34.6525 3.68915 35.3108 4.34754 35.8227 5.11464C37 6.87896 37 9.33412 37 14.2444V14.2444C37 19.1548 37 21.6099 35.8227 23.3743C35.3108 24.1413 34.6525 24.7997 33.8854 25.3116C32.121 26.4889 29.6659 26.4889 24.7555 26.4889Z" stroke="#937CE6" stroke-width="3" stroke-linecap="round" stroke-linejoin="round"/>
</svg>
