<svg width="24" height="24" viewBox="0 0 24 24" fill="none" xmlns="http://www.w3.org/2000/svg">
<path d="M21.9702 2.02994L23.4702 2.02438L23.4647 0.535526L21.9758 0.529954L21.9702 2.02994ZM13.7325 8.17855C13.1481 8.76564 13.1502 9.71539 13.7373 10.2999C14.3244 10.8843 15.2741 10.8822 15.8586 10.2951L13.7325 8.17855ZM2.02981 21.9701L0.52982 21.9756L0.535342 23.4645L2.0242 23.47L2.02981 21.9701ZM10.2675 15.8215C10.8519 15.2344 10.8498 14.2846 10.2627 13.7001C9.67561 13.1157 8.72587 13.1178 8.1414 13.7049L10.2675 15.8215ZM13.963 3.49999L21.9646 3.52993L21.9758 0.529954L13.9742 0.50001L13.963 3.49999ZM20.4702 2.03551L20.5 10.0731L23.5 10.062L23.4702 2.02438L20.4702 2.03551ZM20.9072 0.971665L13.7325 8.17855L15.8586 10.2951L23.0332 3.08822L20.9072 0.971665ZM0.50001 13.938L0.52982 21.9756L3.5298 21.9645L3.49999 13.9269L0.50001 13.938ZM2.0242 23.47L10.0258 23.5L10.037 20.5L2.03542 20.4701L2.0242 23.47ZM3.09285 23.0283L10.2675 15.8215L8.1414 13.7049L0.966773 20.9118L3.09285 23.0283Z" fill="#937CE6"/>
</svg>
