<svg width="35" height="32" viewBox="0 0 35 32" fill="none" xmlns="http://www.w3.org/2000/svg">
<path d="M3.33333 8.66665L2.27267 7.60599L1.21201 8.66665L2.27267 9.72731L3.33333 8.66665ZM31.1667 12.3333C31.1667 13.1617 31.8382 13.8333 32.6667 13.8333C33.4951 13.8333 34.1667 13.1617 34.1667 12.3333H31.1667ZM32.6667 23.3333L33.7273 24.394L34.788 23.3333L33.7273 22.2727L32.6667 23.3333ZM3 19.6666C3 18.8382 2.32843 18.1666 1.5 18.1666C0.671573 18.1666 0 18.8382 0 19.6666H3ZM9.606 0.272653L2.27267 7.60599L4.39399 9.72731L11.7273 2.39397L9.606 0.272653ZM2.27267 9.72731L9.606 17.0606L11.7273 14.9393L4.39399 7.60599L2.27267 9.72731ZM3.33333 10.1666H30.6667V7.16665H3.33333V10.1666ZM31.1667 10.6666V12.3333H34.1667V10.6666H31.1667ZM30.6667 10.1666C30.9428 10.1666 31.1667 10.3905 31.1667 10.6666H34.1667C34.1667 8.73365 32.5997 7.16665 30.6667 7.16665V10.1666ZM24.2727 17.0606L31.606 24.394L33.7273 22.2727L26.394 14.9393L24.2727 17.0606ZM31.606 22.2727L24.2727 29.606L26.394 31.7273L33.7273 24.394L31.606 22.2727ZM32.6667 21.8333H3.5V24.8333H32.6667V21.8333ZM3 21.3333V19.6666H0V21.3333H3ZM3.5 21.8333C3.22386 21.8333 3 21.6095 3 21.3333H0C0 23.2663 1.567 24.8333 3.5 24.8333V21.8333Z" fill="white"/>
</svg>
